<svg width="512" height="513" viewBox="0 0 512 513" fill="none" xmlns="http://www.w3.org/2000/svg">
<g clip-path="url(#clip0_686_10)">
<path fill-rule="evenodd" clip-rule="evenodd" d="M236 1.51758C176.993 8.15158 124.368 41.7946 93.8159 92.4146C72.6479 127.489 62.8929 172.59 68.4709 209.597C75.8619 258.625 109.909 331.506 162.52 410.915C194.807 459.647 227.263 498.698 243.554 508.415C248.659 511.46 250.272 511.915 255.961 511.915C264.999 511.915 269.665 508.995 284.538 494.028C327.543 450.752 392.718 348.704 422.425 278.131C437.221 242.979 443.91 217.411 444.716 192.915C447.11 120.186 404.265 50.8866 337.022 18.7266C306.745 4.24658 268.968 -2.18942 236 1.51758ZM237.23 31.4486C201.52 35.9476 169.785 51.5646 143.921 77.3666C114.791 106.427 99.0949 141.497 97.3199 181.485C96.2579 205.416 101.089 227.25 115.229 262.415C141.31 327.281 205.088 428.761 246.266 470.915L256.034 480.915L264.143 472.415C280.63 455.131 303.523 425.103 325.514 391.915C371.021 323.239 402.962 257.429 412.694 212.293C415.426 199.622 415.14 172.508 412.126 158.415C405.189 125.979 391.437 100.683 368.07 77.3766C337.875 47.2576 302.181 31.9086 260 30.9026C251.475 30.6996 241.228 30.9456 237.23 31.4486ZM235.797 79.9876C196.954 87.0136 164.207 115.135 150.654 153.103C142.933 174.732 142.737 202.722 150.153 224.84C159.467 252.623 181.229 277.332 207.48 289.931C260.122 315.197 321.918 296.404 352.242 245.909C368.75 218.419 371.974 181.308 360.503 150.824C348.703 119.469 322.932 94.4986 291.545 84.0116C275.043 78.4976 252.878 76.8976 235.797 79.9876ZM236.807 110.451C200.1 119.478 174.927 151.51 174.753 189.415C174.669 207.924 180.001 224.192 190.849 238.523C220.081 277.137 275.546 282.166 311.238 249.438C318.15 243.1 327.193 230.526 330.781 222.262C348.464 181.54 329.957 133.686 289.413 115.303C274.195 108.403 253.064 106.454 236.807 110.451Z" fill="white"/>
</g>
<defs>
<clipPath id="clip0_686_10">
<rect width="512" height="512" fill="white" transform="translate(0 0.414551)"/>
</clipPath>
</defs>
</svg>
