<svg width="50" height="50" viewBox="0 0 50 50" fill="none" xmlns="http://www.w3.org/2000/svg">
<path d="M1.25473 29.1393C-0.418245 27.4001 -0.418241 24.5802 1.25473 22.841L7.75845 16.0797C9.43142 14.3405 12.1438 14.3405 13.8168 16.0797L20.3205 22.841C21.9935 24.5802 21.9935 27.4001 20.3205 29.1393L13.8168 35.9006C12.1438 37.6399 9.43142 37.6399 7.75844 35.9006L1.25473 29.1393Z" fill="#272FFF"/>
<path d="M15.4671 14.364C13.7941 12.6248 13.7941 9.80497 15.4671 8.06573L21.9708 1.30442C23.6438 -0.43481 26.3562 -0.434806 28.0292 1.30443L34.5329 8.06574C36.2059 9.80497 36.2059 12.6248 34.5329 14.3641L28.0292 21.1254C26.3562 22.8646 23.6438 22.8646 21.9708 21.1254L15.4671 14.364Z" fill="#FF8A00"/>
<path d="M29.6795 29.1393C28.0065 27.4001 28.0065 24.5802 29.6795 22.841L36.1832 16.0797C37.8562 14.3405 40.5686 14.3405 42.2416 16.0797L48.7453 22.841C50.4182 24.5802 50.4182 27.4001 48.7453 29.1393L42.2416 35.9006C40.5686 37.6399 37.8562 37.6399 36.1832 35.9006L29.6795 29.1393Z" fill="#14FF00"/>
<path d="M18.719 47.2953C15.25 43.6889 15.25 37.842 18.719 34.2356C22.1879 30.6293 27.8121 30.6293 31.281 34.2356C34.75 37.842 34.75 43.6889 31.281 47.2953C27.8121 50.9016 22.1879 50.9016 18.719 47.2953Z" fill="#FFF500"/>
</svg>
