<svg width="512" height="391" viewBox="0 0 512 391" fill="none" xmlns="http://www.w3.org/2000/svg">
<path fill-rule="evenodd" clip-rule="evenodd" d="M36.1081 1.71573C19.0201 5.07173 4.33305 20.0607 1.02105 37.5247C-0.384947 44.9367 -0.384947 346.331 1.02105 353.743C4.39705 371.546 19.0881 386.237 36.8911 389.613C44.3351 391.025 467.665 391.025 475.109 389.613C492.456 386.324 508.605 370.453 510.73 354.607C511.027 352.395 511.659 350.345 512.135 350.051C512.616 349.753 513 280.652 513 194.516C513 106.728 512.622 39.7487 512.129 40.0537C511.65 40.3497 511.018 38.8027 510.724 36.6157C508.605 20.8147 492.433 4.93973 475.109 1.65473C468.415 0.384726 42.5821 0.443727 36.1081 1.71573ZM142 120.654C191.775 170.136 238.042 215.882 244.815 222.312L257.13 234.003L358.814 132.319L460.499 30.6337L255.999 30.6597L51.5001 30.6867L142 120.654ZM0.488053 195.634C0.488053 281.159 0.606053 316.146 0.750053 273.384C0.894053 230.622 0.894053 160.646 0.750053 117.884C0.606053 75.1217 0.488053 110.109 0.488053 195.634ZM30.0001 195.794V339.132L102.13 267.003L174.259 194.873L105.38 126.384C67.4961 88.7157 35.0381 56.6717 33.2501 55.1757L30.0001 52.4557V195.794ZM409.999 124.135L338.503 195.636L410.252 267.384L482 339.132V195.883C482 117.096 481.886 52.6337 481.747 52.6337C481.608 52.6337 449.322 84.8087 409.999 124.135ZM123.5 288.634L51.5051 360.634H256.002H460.498L388.762 288.897L317.025 217.161L291.763 242.285C277.868 256.104 265.06 268.135 263.3 269.022C254.392 273.509 250.811 271.171 221.508 241.737C207.762 227.931 196.285 216.634 196.005 216.634C195.724 216.634 163.097 249.034 123.5 288.634Z" fill="white"/>
</svg>
