<svg width="512" height="513" viewBox="0 0 512 513" fill="none" xmlns="http://www.w3.org/2000/svg">
<path fill-rule="evenodd" clip-rule="evenodd" d="M277.704 1.62563C276.574 2.08363 274.212 4.09563 272.454 6.09663C269.754 9.17163 269.259 10.5266 269.259 14.8336C269.259 20.7036 271.633 25.3076 275.94 27.7936C277.49 28.6876 283.484 30.4106 289.259 31.6206C337.356 41.7016 378.955 64.2386 413.821 99.1046C449.547 134.831 470.499 174.235 481.811 226.975C483.673 235.656 486.587 240.071 491.93 242.303C496.398 244.17 499.656 244.015 504.146 241.725C512.232 237.599 513.355 232.522 509.796 216.167C497.96 161.766 472.946 116.148 433.449 76.9286C395.855 39.5996 350.087 14.6296 298.242 3.16263C286.594 0.586627 281.256 0.186627 277.704 1.62563ZM93.2594 30.2916C86.7664 31.3836 79.0684 33.9586 73.6794 36.8426C65.3024 41.3256 20.5024 85.9656 13.5054 96.8026C-0.802566 118.965 -3.34657 146.215 5.44343 183.167C25.6654 268.174 96.9954 368.431 183.759 433.794C232.996 470.887 291.747 499.881 336.759 509.301C347.939 511.64 352.209 512.029 367.259 512.078C387.061 512.142 392.056 511.19 405.759 504.737C417.555 499.183 422.111 495.278 448.115 468.443C468.747 447.151 472.232 443.093 475.472 436.586C482.846 421.781 482.887 407.673 475.599 392.667C472.207 385.683 469.472 382.669 435.872 348.877C416.026 328.917 397.532 311.034 394.774 309.136C386.747 303.614 379.171 301.313 368.759 301.234C351.026 301.102 343.522 305.492 316.83 331.618L296.759 351.264L287.259 346.214C266.203 335.022 245.282 318.667 220.68 294.167C193.596 267.196 179.159 249.085 166.128 225.73L160.304 215.294L180.642 194.69C193.193 181.974 202.185 171.996 204.129 168.627C214.094 151.358 213.528 132.003 202.584 115.712C196.789 107.086 131.002 41.8846 123.886 37.7146C114.197 32.0376 101.369 28.9286 93.2594 30.2916ZM92.0844 61.0136C86.5744 63.0616 82.6534 66.5406 60.1464 89.3566C41.7664 107.99 39.1474 111.062 35.9724 117.71C28.8654 132.591 28.3464 150.231 34.2654 175.8C39.6074 198.878 54.0194 233.801 69.0824 260.167C81.1114 281.222 102.218 311.116 121.332 334.167C132.663 347.831 168.227 383.242 182.259 394.831C221.405 427.161 266.873 454.395 307.099 469.608C348.528 485.276 379.284 487.242 398.01 475.419C404.731 471.176 447.866 426.853 449.815 422.187C451.692 417.695 451.651 411.545 449.713 406.885C447.794 402.27 381.526 335.438 376.049 332.594C371.206 330.079 365.208 330.15 359.969 332.784C357.463 334.045 346.654 343.919 333.259 357.185C318.003 372.294 309.471 380.008 306.759 381.147C299.763 384.084 293.413 382.911 280.259 376.249C252.492 362.187 224.406 340.798 196.6 312.54C167.473 282.94 149.166 258.541 135.919 231.672C130.254 220.181 129.762 218.654 129.793 212.672C129.814 208.615 130.442 205.021 131.462 203.122C132.362 201.447 142.848 190.422 154.764 178.622C166.679 166.822 177.597 155.189 179.024 152.772C182.21 147.375 182.503 140.826 179.81 135.167C177.526 130.369 112.423 64.6926 107.526 62.2476C102.907 59.9406 96.3774 59.4186 92.0844 61.0136ZM271.864 95.5886C265.035 100.091 262.9 109.114 267.069 115.859C269.793 120.268 273.366 121.982 285.643 124.773C324.225 133.544 358.649 160.706 376.759 196.667C381.953 206.979 384.947 215.207 388.319 228.435C391.414 240.573 393.044 243.62 397.851 246.256C402.219 248.651 410.438 247.782 413.887 244.561C420.143 238.716 420.578 233.9 416.331 217.485C402.189 162.81 361.209 118.383 308.259 100.318C288.817 93.6846 277.067 92.1586 271.864 95.5886Z" fill="white"/>
</svg>
