<svg width="514" height="300" viewBox="0 0 514 300" fill="none" xmlns="http://www.w3.org/2000/svg">
<path fill-rule="evenodd" clip-rule="evenodd" d="M22.1552 2.18355C11.1142 6.24755 3.48125 14.6886 1.28625 25.2616C-0.861755 35.6086 0.305244 40.0076 10.8792 61.4146C54.3432 149.415 102.433 210.481 168.178 261.161C184.643 273.853 207.396 289.092 215.128 292.604C236.396 302.267 263.717 300.911 283.016 289.236C289.753 285.161 298.628 276.634 302.522 270.497C308.266 261.445 309.531 255.018 310.018 232.415C310.26 221.14 310.673 210.889 310.935 209.634C311.478 207.034 316.778 203.424 320.061 203.419C321.273 203.417 323.424 203.943 324.841 204.589C326.329 205.267 340.172 222.061 357.606 244.339C374.209 265.556 390.009 285.275 392.717 288.16C395.446 291.069 400.138 294.633 403.249 296.16L408.858 298.915H448.358H487.858L493.358 296.321C508.955 288.964 516.382 271.089 510.17 255.861C508.573 251.946 495.894 233.53 473.051 201.944C440.676 157.178 438.358 153.694 438.358 149.803C438.358 145.913 440.745 142.32 473.874 96.3365C496.858 64.4335 509.797 45.6066 510.543 42.9776C511.177 40.7426 512.069 38.4876 512.527 37.9646C513.587 36.7526 513.622 26.4146 512.565 26.4146C512.129 26.4146 511.261 24.5006 510.635 22.1606C509.176 16.7046 504.478 10.2386 499.191 6.40855C491.341 0.721554 488.701 0.414551 447.714 0.414551C412.832 0.414551 410.088 0.543554 405.066 2.42255C394.933 6.21355 393.678 7.89155 359.78 62.9875C327.323 115.738 326.099 117.421 320.158 117.411C316.805 117.406 311.492 113.837 310.903 111.196C310.624 109.941 310.274 90.2396 310.127 67.4146L309.858 25.9146L306.978 19.6805C303.312 11.7415 296.658 5.41855 288.926 2.52555C283.179 0.375551 282.376 0.348547 233.476 0.629547C184.979 0.908547 183.752 0.963549 179.162 3.08455C173.149 5.86255 166.485 12.5386 163.359 18.9146C159.839 26.0936 159.839 38.7356 163.359 45.9146C166.291 51.8956 172.44 58.2845 177.627 60.7415L181.397 62.5266L181.127 84.2206C180.866 105.274 180.797 105.924 178.795 106.21C177.235 106.433 175.075 104.391 169.947 97.8445C154.616 78.2745 140.499 53.8786 129.348 27.6826C123.266 13.3946 118.885 7.80255 110.572 3.72055L104.858 0.914551L65.8582 0.683548C30.9922 0.477548 26.3602 0.636548 22.1552 2.18355ZM25.2812 25.3376C20.5732 30.0456 21.1792 33.5606 29.6952 50.9406C76.3782 146.219 131.054 211.556 206.412 262.116C219.128 270.647 225.525 273.963 233.051 275.923C249.668 280.252 270.59 274.775 280.515 263.499C287.332 255.755 287.592 254.583 288.293 228.415C288.909 205.407 288.979 204.806 291.625 199.728C295.16 192.945 300.551 187.746 307.358 184.557C311.8 182.476 314.325 181.988 320.484 182.02C330.125 182.07 336.96 185.166 343.994 192.67C346.698 195.555 362.582 215.391 379.292 236.75C398.242 260.972 410.614 275.942 412.175 276.536C413.641 277.093 429.351 277.368 450.105 277.201L485.533 276.915L487.946 274.109C489.674 272.099 490.354 270.114 490.345 267.109C490.332 263.197 488.05 259.755 456.397 215.915C437.733 190.065 421.201 166.665 419.66 163.915C417.169 159.469 416.858 157.918 416.858 149.915C416.858 142.578 417.274 140.084 419.11 136.415C420.349 133.94 430.649 119.09 441.999 103.415C490.656 36.2186 490.358 36.6565 490.358 32.2785C490.358 29.1715 489.696 27.5986 487.435 25.3376L484.512 22.4146H448.451H412.39L409.476 25.1646C407.874 26.6766 393.047 49.9646 376.528 76.9146C357.023 108.736 344.979 127.388 342.175 130.117C329.758 142.203 309.614 141.924 297.556 129.5C295.361 127.238 292.506 123.256 291.212 120.651C288.875 115.949 288.854 115.606 288.358 72.3165C287.832 26.4205 287.934 27.4125 283.358 23.6965C282.228 22.7785 270.313 22.4705 235.031 22.4465L188.204 22.4146L185.281 25.3376C181.447 29.1726 181.23 34.9906 184.769 39.1086C186.935 41.6306 187.974 41.9656 195.019 42.4146L202.858 42.9146L203.122 74.8636C203.341 101.314 203.125 107.601 201.864 111.396C197.476 124.608 183.376 131.508 170.237 126.872C165 125.025 161.393 121.692 152.426 110.415C135.828 89.5396 123.09 67.3275 107.811 32.6105C103.058 21.8116 105.64 22.4146 64.1462 22.4146H28.2042L25.2812 25.3376ZM0.668245 32.9146C0.673245 36.2146 0.860245 37.4435 1.08325 35.6465C1.30525 33.8495 1.30125 31.1495 1.07325 29.6465C0.844245 28.1435 0.662245 29.6146 0.668245 32.9146Z" fill="white"/>
</svg>
